<?xml version="1.0" encoding="UTF-8"?><svg id="Layer_1" xmlns="http://www.w3.org/2000/svg" viewBox="0 0 500 500"><defs><style>.cls-1{fill:#fff;}</style></defs><path class="cls-1" d="M431.91,297.32c0,2.03-.11,4.04-.34,6.01-.83,.76-1.81,1.48-2.96,2.16-11.99,7.09-55.08,19.34-89.47,18.28,0,0,56.28,4.42,85.16-4.69,1.26-.4,2.43-.82,3.51-1.27-8.02,19.19-26.96,32.67-49.06,32.67-29.36,0-53.16-23.8-53.16-53.16s23.8-53.16,53.16-53.16c21.91,0,40.73,13.26,48.86,32.19-.68,.89-1.63,1.75-2.93,2.52-7.4,4.37-34.04,11.95-55.29,11.29,0,0,34.78,2.73,52.63-2.89,3.85-1.21,6.32-2.84,7.83-4.64,1.34,4.66,2.06,9.59,2.06,14.69Z"/><g><circle class="cls-1" cx="199.53" cy="108" r="35.5"/><path class="cls-1" d="M73.81,421.53l7.98,4.61c6.28,3.63,14.32,1.48,17.95-4.81l84.62-139.64,64.31,17.63c3.43,1.08,5.77,4.27,5.77,7.86v77.84c0,7.26,5.88,13.14,13.14,13.14h9.22c7.26,0,13.14-5.88,13.14-13.14v-95.42c0-8.63-5.6-16.26-13.83-18.86l-21.67-6.83-37.74-11.89,5.92-51.65,24.11,27.02,5.4,6.05c9.75,10.93,27.69,7.07,32.09-6.9l2.44-7.74,22.02-69.87c2.18-6.92-1.66-14.3-8.58-16.48l-8.79-2.77c-6.92-2.18-14.3,1.66-16.48,8.58l-15.67,49.73-25.98-29.11c-3.53-3.96-8.4-6.48-13.68-7.08l-7.6-.87-29.11-3.34-19-2.18c-3.26-.37-6.55,.31-9.39,1.95l-19.09,11.02-24.75,14.29c-5.5,3.17-8.63,9.27-8.02,15.58l2.77,28.44,2.46,32.5c.75,9.95,9.53,18.08,19.5,18.08h0c9.61,0,16.83-7.83,16.06-17.41l-4.25-52.68,13.34-7.7-6.88,60.03c-2.03,17.7-7.67,34.8-16.58,50.24l-59.93,103.82c-3.63,6.28-1.47,14.32,4.81,17.95Z"/></g></svg>